<svg id="Capa_1" enable-background="new 0 0 512 512" height="512" viewBox="0 0 512 512" width="512" xmlns="http://www.w3.org/2000/svg"><g><path d="m136 392c-74.991 0-136-61.009-136-136v-59h30v59c0 58.448 47.551 106 106 106z" fill="#f66"/><path d="m376 392v-30c58.448 0 106-47.551 106-106v-59h30v59c0 74.991-61.01 136-136 136z" fill="#e62e6b"/><path d="m236 173.527 20 338.473c74.439 0 135-60.561 135-135v-46.486c34.747-6.983 61-37.74 61-74.513v-82.472z" fill="#b32453"/><path d="m60 173.525v82.475c0 36.773 26.252 67.53 61 74.513v46.487c0 74.439 60.561 135 135 135v-338.473z" fill="#e62e6b"/><path d="m144 187h62v62h-62z" fill="#404a80"/><path d="m309 187h62v62h-62z" fill="#1f2859"/><path d="m340.347 272h-24.347v-30h24.347c11.389 0 20.653-9.265 20.653-20.654v-24.346h30v24.346c0 27.931-22.723 50.654-50.653 50.654z" fill="#fec"/><path d="m196 272h-24.346c-27.931 0-50.654-22.723-50.654-50.654v-24.346h30v24.346c0 11.389 9.265 20.654 20.654 20.654h24.346z" fill="#fffbe6"/><path d="m315.938 0c-24.479 0-46.254 11.797-59.938 30.005l-20 103.513 168.332-30c29.848-19.703 47.668-52.794 47.668-88.518v-15z" fill="#b32453"/><path d="m196.062 0h-136.062v15c0 35.725 17.82 68.816 47.669 88.519l148.331 30v-103.514c-13.684-18.208-35.459-30.005-59.938-30.005z" fill="#e62e6b"/><path d="m315.938 76c-24.479 0-46.254 11.797-59.938 30.005l-20 255.995 95-20v-130h45c58.448 0 106-47.551 106-106v-30z" fill="#e62e6b"/><path d="m256 106.005c-13.684-18.208-35.459-30.005-59.938-30.005h-166.062v30c0 58.449 47.551 106 106 106h45v130l75 20z" fill="#f66"/><path d="m236 392 93.491-20c.988-4.848 1.509-9.864 1.509-15v-15h-75z" fill="#ffd9b3"/><path d="m256 342h-75v15c0 5.136.521 10.152 1.509 15l73.491 20z" fill="#fec"/><path d="m256 432c36.22 0 66.522-25.808 73.491-60h-73.491l-20 30z" fill="#e62e6b"/><path d="m182.509 372c6.968 34.192 37.272 60 73.491 60v-60z" fill="#f66"/></g></svg>